<svg id="Capa_1" enable-background="new 0 0 512 512" height="512" viewBox="0 0 512 512" width="512" xmlns="http://www.w3.org/2000/svg"><g><g><path d="m438.04 197.291c-9.467 4.176-22.226 4.378-32.514 3.561-19.109-1.519-38.354-.297-57.108 3.668-76.444 16.161-92.418 51.324-92.418 51.324s-15.974-35.163-92.418-51.324c-18.755-3.965-37.999-5.187-57.108-3.668-10.288.818-23.047.616-32.514-3.561-1.978-.872-4.203.525-4.203 2.686v30.236l186.243 73.373 186.243-73.372v-30.236c0-2.162-2.225-3.559-4.203-2.687z" fill="#fdf6ec"/></g><g><path d="m442.244 199.975v30.234l-20.003 7.881v-34.755c0-.94-.31-1.75-.8-2.35 5.881-.43 11.682-1.52 16.602-3.69 1.971-.88 4.201.52 4.201 2.68z" fill="#fcead0"/></g><g><path d="m256 303.586-205.555-80.98c-3.146-1.239-6.552 1.08-6.552 4.461v25.538l212.107 87.203 212.107-87.203v-25.538c0-3.381-3.406-5.7-6.552-4.461z" fill="#6ed5a1"/></g><g><path d="m468.108 227.069v25.533l-20.003 8.221v-27.863c0-1.81-.8-3.34-1.99-4.271l15.442-6.081c3.14-1.24 6.551 1.08 6.551 4.461z" fill="#46cc8d"/></g><g><path d="m502.253 441.05-489.75-201.351c-2.385-.981-5.003.773-5.003 3.352v31.135c0 1.357.758 2.6 1.964 3.222l415.82 214.235c.805.415 1.736.513 2.61.276l27.495-7.468c.768-.209 1.583-.159 2.32.142l41.796 17.06c2.384.973 4.994-.781 4.994-3.356v-53.895c0-1.47-.887-2.794-2.246-3.352z" fill="#c68d7a"/></g><g><path d="m504.502 444.397v18.722c-.33-.33-.72-.59-1.16-.77l-490.824-201.796c-2.39-.98-5.021.77-5.021 3.361v-20.863c0-2.58 2.62-4.331 5.001-3.35l489.753 201.346c1.361.56 2.251 1.89 2.251 3.35z" fill="#bc7c63"/></g><g><path d="m9.747 441.05 489.75-201.351c2.385-.981 5.003.773 5.003 3.352v31.135c0 1.357-.758 2.6-1.964 3.222l-415.821 214.235c-.805.415-1.736.513-2.61.276l-27.495-7.468c-.768-.209-1.583-.159-2.32.142l-41.796 17.06c-2.384.973-4.994-.781-4.994-3.356v-53.895c.001-1.47.888-2.794 2.247-3.352z" fill="#935b44"/></g><g><path d="m7.498 444.397v18.722c.33-.33.72-.59 1.16-.77l490.824-201.796c2.39-.98 5.021.77 5.021 3.361v-20.863c0-2.58-2.62-4.331-5.001-3.35l-489.754 201.346c-1.36.56-2.25 1.89-2.25 3.35z" fill="#87523e"/></g><g><circle cx="256" cy="368.917" r="10.001"/><path d="m512 274.186v-31.135c0-3.718-1.844-7.173-4.932-9.242-3.087-2.069-6.983-2.463-10.423-1.048l-21.037 8.649v-14.343c0-4.072-2.01-7.872-5.376-10.164-3.367-2.292-7.639-2.768-11.426-1.276l-9.062 3.57v-19.219c0-3.544-1.771-6.813-4.735-8.746-2.989-1.947-6.724-2.247-9.996-.803-6.587 2.906-16.574 3.926-28.892 2.946-19.892-1.581-39.828-.3-59.253 3.807-54.782 11.581-80.165 32.947-90.855 45.556-2.325-2.751-5.336-5.909-9.22-9.305-15.205-13.296-36.099-23.855-62.101-31.384-3.975-1.151-8.14 1.138-9.291 5.119-1.152 3.979 1.14 8.139 5.119 9.291 48.602 14.073 64.709 36.042 67.979 41.321v7.244c-46.923-31.066-104.714-43.129-107.36-43.669-4.055-.824-8.018 1.79-8.847 5.848s1.788 8.02 5.846 8.851c.658.134 64.875 13.573 110.361 47.281v9.234l-43.213-17.024-128.028-50.438v-18.725c8.093 2.224 18.084 2.881 29.811 1.948 13.783-1.096 27.696-.705 41.349 1.163 4.1.565 7.888-2.31 8.448-6.415.562-4.104-2.311-7.887-6.415-8.448-14.72-2.013-29.714-2.435-44.572-1.255-12.312.981-22.303-.04-28.891-2.946-3.271-1.444-7.011-1.144-9.996.803-2.964 1.933-4.735 5.202-4.735 8.746v19.219l-9.062-3.57c-3.788-1.492-8.06-1.016-11.426 1.276s-5.376 6.092-5.376 10.164v14.343l-21.037-8.649c-3.439-1.415-7.336-1.022-10.423 1.048-3.089 2.069-4.933 5.524-4.933 9.242v31.135c0 4.185 2.311 7.975 6.03 9.889l162.351 83.645-161.485 66.392c-4.19 1.722-6.896 5.761-6.896 10.29v53.896c0 3.712 1.839 7.164 4.921 9.235 1.865 1.252 4.025 1.893 6.202 1.893 1.421 0 2.849-.273 4.207-.827l40.583-16.564 26.227 7.124c2.69.731 5.534.43 8.012-.846l165.848-85.45 88.961 45.834c3.679 1.896 8.205.45 10.103-3.232 1.898-3.683.45-8.206-3.233-10.103l-79.454-40.935 53.732-27.684 170.889 70.257v45.528l-36.453-14.878c-2.249-.919-4.778-1.073-7.122-.437l-26.042 7.074-44.351-22.85c-3.681-1.898-8.205-.451-10.103 3.232s-.45 8.206 3.233 10.103l45.689 23.54c2.477 1.277 5.325 1.577 8.011.846l26.229-7.125 40.581 16.564c1.359.554 2.786.827 4.208.827 2.176 0 4.338-.641 6.201-1.893 3.081-2.07 4.921-5.522 4.921-9.235v-53.896c0-4.529-2.707-8.568-6.896-10.289l-161.484-66.39 162.349-83.644c3.72-1.916 6.031-5.706 6.031-9.891zm-248.499 9.149c45.486-33.708 109.703-47.147 110.361-47.281 4.057-.829 6.676-4.79 5.848-8.849s-4.792-6.676-8.849-5.85c-2.646.54-60.436 12.603-107.36 43.669v-7.253c1.517-2.466 5.793-8.542 14.72-15.665 11.729-9.358 33.697-22.202 71.75-30.247 18.015-3.81 36.507-4.997 54.961-3.53 11.727.932 21.717.276 29.811-1.949v18.726l-128.028 50.438-43.213 17.024v-9.233zm-212.107-52.293 201.856 79.523c1.766.696 3.733.696 5.499 0l201.856-79.523v16.536l-204.605 84.12-204.606-84.12zm-36.392 40.781v-22.986l221.272 90.972-49.676 20.423zm-2.404 176.165.021-.008c-.007.002-.014.005-.021.008zm484.4-176.165-412.38 212.463-26.042-7.074c-2.345-.637-4.875-.482-7.12.436l-36.455 14.879v-45.527l481.996-198.163v22.986z"/><circle cx="293.564" cy="59.157" r="10.001"/><ellipse cx="324.187" cy="59.157" rx="10.001" ry="10.001" transform="matrix(.982 -.189 .189 .982 -5.338 62.374)"/><path d="m378.36 170.316c4.143 0 7.501-3.358 7.501-7.501v-86.036c0-4.143-3.358-7.501-7.501-7.501s-7.501 3.358-7.501 7.501v86.037c0 4.142 3.358 7.5 7.501 7.5z"/><path d="m139.494 76.779v86.037c0 4.143 3.358 7.501 7.501 7.501s7.501-3.358 7.501-7.501v-86.037c0-4.143-3.358-7.501-7.501-7.501s-7.501 3.358-7.501 7.501z"/><path d="m191.33 175.111c5.607 3.099 12.904 4.55 20.527 4.55 13.481 0 27.977-4.543 35.922-12.555 3.909-3.942 6.88-8.986 8.782-14.753 9.157 5.598 19.625 8.62 29.97 8.62 26.944 0 52.782-16.529 52.516-45.532-.121-13.188-5.561-25.332-14.197-31.695-4.927-3.628-13.251-7.219-24.934-3.709-15.741 4.727-21.874 19.894-18.528 31.236 2.095 7.101 6.933 12.524 13.995 15.683 8.425 3.77 18.268 3.547 26.136 1.43-3.807 8.294-12.665 15.598-31.4 17.413-10.391 1.004-21.379-2.388-30.143-9.312-.314-.248-.645-.458-.983-.649-.057-8.194-1.636-16.016-3.175-23.609l-2.687-13.256c-.822-4.06-4.774-6.682-8.842-5.862-4.06.823-6.684 4.781-5.861 8.841l2.687 13.256c1.562 7.71 3.177 15.683 2.835 23.233-.345 7.583-2.768 14.011-6.824 18.102-7.684 7.747-28.932 10.746-38.542 5.437-4.375-2.418-7.232-6.612-7.645-11.219-.385-4.309 1.371-8.284 4.947-11.193 3.213-2.615 3.698-7.339 1.083-10.552-2.614-3.213-7.337-3.699-10.553-1.083-7.452 6.065-11.25 14.872-10.419 24.164.857 9.579 6.588 18.182 15.333 23.014zm130.064-62.568c-5.186 2.458-13.684 3.495-19.885.719-3.019-1.35-4.894-3.39-5.733-6.234-1.635-5.542 3.051-11.001 8.454-12.623 1.755-.527 3.391-.792 4.92-.792 2.548 0 4.798.735 6.801 2.211 4.118 3.034 7.032 9.1 7.857 16.037-.816.087-1.631.311-2.414.682z"/><path d="m126.756 55.076c1.226 2.832 3.988 4.525 6.889 4.525.993 0 2.004-.199 2.975-.619 12.797-5.536 26.61-12.711 27.192-13.014 3.155-1.641 4.723-5.272 3.756-8.694s-4.211-5.699-7.751-5.442c-10.029.713-15.979-1.143-17.673-5.518-1.296-3.348-.028-5.536.842-6.542 1.219-1.41 3.552-2.68 6.444-2.016 4.042.922 8.063-1.598 8.987-5.636.925-4.038-1.598-8.062-5.635-8.987-7.845-1.795-15.944.818-21.14 6.823-5.157 5.96-6.46 14.101-3.487 21.777 1.44 3.716 4.063 7.701 8.809 10.663-2.094.964-4.219 1.917-6.302 2.818-3.802 1.644-5.551 6.06-3.906 9.862z"/></g></g></svg>